<?xml version="1.0" standalone="no"?>
<!DOCTYPE svg PUBLIC "-//W3C//DTD SVG 20010904//EN" "http://www.w3.org/TR/2001/REC-SVG-20010904/DTD/svg10.dtd">
<svg version="1.0" xmlns="http://www.w3.org/2000/svg"
  width="512.000000pt" height="512.000000pt" viewBox="0 0 512.000000 512.000000"
  preserveAspectRatio="xMidYMid meet">

  <g transform="translate(0.000000,512.000000) scale(0.100000,-0.100000)"
    fill="#000000" stroke="none">
    <path
      d="M1909 5047 c-43 -29 -79 -82 -79 -118 l0 -29 -175 0 -175 0 0 -170 0
-170 175 0 175 0 0 -29 c0 -36 36 -89 79 -118 32 -22 43 -23 232 -23 l199 0 0
170 0 170 90 0 90 0 0 -170 0 -170 780 0 780 0 0 170 0 170 90 0 90 0 0 -170
0 -170 191 0 c156 0 197 3 225 16 44 21 72 57 87 111 l11 43 173 0 173 0 0
170 0 170 -173 0 -173 0 -11 43 c-15 54 -43 90 -87 111 -31 15 -158 16 -1384
16 l-1349 0 -34 -23z m961 -317 l0 -90 -90 0 -90 0 0 90 0 90 90 0 90 0 0 -90z
m690 0 l0 -90 -265 0 -265 0 0 83 c0 46 3 87 7 90 3 4 123 7 265 7 l258 0 0
-90z m350 0 l0 -90 -90 0 -90 0 0 90 0 90 90 0 90 0 0 -90z" />
    <path d="M1740 3170 l0 -170 690 0 690 0 0 170 0 170 -690 0 -690 0 0 -170z" />
    <path d="M3470 3170 l0 -170 695 0 695 0 0 170 0 170 -695 0 -695 0 0 -170z" />
    <path d="M90 2650 l0 -430 85 0 85 0 0 430 0 430 -85 0 -85 0 0 -430z" />
    <path d="M520 2475 l0 -345 170 0 170 0 0 345 0 345 -170 0 -170 0 0 -345z" />
  </g>
</svg>